<mxfile host="Electron" agent="Mozilla/5.0 (X11; Linux x86_64) AppleWebKit/537.36 (KHTML, like Gecko) draw.io/26.0.16 Chrome/132.0.6834.196 Electron/34.2.0 Safari/537.36" version="26.0.16" pages="2">
  <diagram name="Page-1" id="3AW5-ktgtw7EkkDbTFMs">
    <mxGraphModel dx="507" dy="674" grid="1" gridSize="10" guides="1" tooltips="1" connect="1" arrows="1" fold="1" page="1" pageScale="1" pageWidth="850" pageHeight="1100" math="0" shadow="0">
      <root>
        <mxCell id="0" />
        <mxCell id="1" parent="0" />
        <mxCell id="j-x7F7YZUVN5cunonLdc-24" value="" style="rounded=0;whiteSpace=wrap;html=1;perimeterSpacing=6;strokeWidth=1;strokeColor=#666666;fillColor=#f5f5f5;gradientColor=#b3b3b3;" vertex="1" parent="1">
          <mxGeometry x="520" y="120" width="170" height="360" as="geometry" />
        </mxCell>
        <mxCell id="j-x7F7YZUVN5cunonLdc-1" value="" style="rounded=0;whiteSpace=wrap;html=1;strokeWidth=1;dashed=1;" vertex="1" parent="1">
          <mxGeometry x="120" y="120" width="110" height="360" as="geometry" />
        </mxCell>
        <mxCell id="j-x7F7YZUVN5cunonLdc-2" value="Sources" style="rounded=1;whiteSpace=wrap;html=1;fontStyle=1" vertex="1" parent="1">
          <mxGeometry x="139.2" y="100" width="80" height="30" as="geometry" />
        </mxCell>
        <mxCell id="j-x7F7YZUVN5cunonLdc-3" value="CRM" style="image;aspect=fixed;html=1;points=[];align=center;fontSize=12;image=img/lib/azure2/general/Folder_Blank.svg;" vertex="1" parent="1">
          <mxGeometry x="145.36" y="203" width="49.29" height="40" as="geometry" />
        </mxCell>
        <mxCell id="j-x7F7YZUVN5cunonLdc-4" value="ERP" style="image;aspect=fixed;html=1;points=[];align=center;fontSize=12;image=img/lib/azure2/general/Folder_Blank.svg;" vertex="1" parent="1">
          <mxGeometry x="139.2" y="349" width="61.61" height="50" as="geometry" />
        </mxCell>
        <mxCell id="j-x7F7YZUVN5cunonLdc-8" value="" style="rounded=0;whiteSpace=wrap;html=1;perimeterSpacing=6;strokeWidth=1;strokeColor=#d6b656;gradientColor=none;fillColor=#FFE6CC;" vertex="1" parent="1">
          <mxGeometry x="280" y="120" width="160" height="360" as="geometry" />
        </mxCell>
        <mxCell id="j-x7F7YZUVN5cunonLdc-9" value="Bronze Layer" style="rounded=1;whiteSpace=wrap;html=1;fillColor=#ffe6cc;strokeColor=#d79b00;fontStyle=1" vertex="1" parent="1">
          <mxGeometry x="310" y="100" width="100" height="30" as="geometry" />
        </mxCell>
        <mxCell id="j-x7F7YZUVN5cunonLdc-32" style="edgeStyle=orthogonalEdgeStyle;rounded=0;orthogonalLoop=1;jettySize=auto;html=1;entryX=0;entryY=0.5;entryDx=0;entryDy=0;" edge="1" parent="1" source="j-x7F7YZUVN5cunonLdc-10" target="j-x7F7YZUVN5cunonLdc-26">
          <mxGeometry relative="1" as="geometry" />
        </mxCell>
        <mxCell id="j-x7F7YZUVN5cunonLdc-10" value="crm_sales_details" style="rounded=1;whiteSpace=wrap;html=1;fillColor=#ffe6cc;strokeColor=#d79b00;" vertex="1" parent="1">
          <mxGeometry x="300" y="163" width="120" height="30" as="geometry" />
        </mxCell>
        <mxCell id="j-x7F7YZUVN5cunonLdc-33" style="edgeStyle=orthogonalEdgeStyle;rounded=0;orthogonalLoop=1;jettySize=auto;html=1;" edge="1" parent="1" source="j-x7F7YZUVN5cunonLdc-11" target="j-x7F7YZUVN5cunonLdc-27">
          <mxGeometry relative="1" as="geometry">
            <Array as="points">
              <mxPoint x="500" y="221" />
              <mxPoint x="500" y="221" />
            </Array>
          </mxGeometry>
        </mxCell>
        <mxCell id="j-x7F7YZUVN5cunonLdc-11" value="crm_cust_info" style="rounded=1;whiteSpace=wrap;html=1;fillColor=#ffe6cc;strokeColor=#d79b00;" vertex="1" parent="1">
          <mxGeometry x="300" y="208" width="120" height="30" as="geometry" />
        </mxCell>
        <mxCell id="j-x7F7YZUVN5cunonLdc-37" style="edgeStyle=orthogonalEdgeStyle;rounded=0;orthogonalLoop=1;jettySize=auto;html=1;entryX=0;entryY=0.5;entryDx=0;entryDy=0;" edge="1" parent="1" source="j-x7F7YZUVN5cunonLdc-12" target="j-x7F7YZUVN5cunonLdc-28">
          <mxGeometry relative="1" as="geometry" />
        </mxCell>
        <mxCell id="j-x7F7YZUVN5cunonLdc-12" value="crm_prd_info" style="rounded=1;whiteSpace=wrap;html=1;fillColor=#ffe6cc;strokeColor=#d79b00;" vertex="1" parent="1">
          <mxGeometry x="300" y="250" width="120" height="30" as="geometry" />
        </mxCell>
        <mxCell id="j-x7F7YZUVN5cunonLdc-36" style="edgeStyle=orthogonalEdgeStyle;rounded=0;orthogonalLoop=1;jettySize=auto;html=1;" edge="1" parent="1" source="j-x7F7YZUVN5cunonLdc-16" target="j-x7F7YZUVN5cunonLdc-29">
          <mxGeometry relative="1" as="geometry" />
        </mxCell>
        <mxCell id="j-x7F7YZUVN5cunonLdc-16" value="erp_cust_az12" style="rounded=1;whiteSpace=wrap;html=1;fillColor=#ffe6cc;strokeColor=#d79b00;" vertex="1" parent="1">
          <mxGeometry x="300" y="319" width="120" height="30" as="geometry" />
        </mxCell>
        <mxCell id="j-x7F7YZUVN5cunonLdc-35" style="edgeStyle=orthogonalEdgeStyle;rounded=0;orthogonalLoop=1;jettySize=auto;html=1;exitX=1;exitY=0.5;exitDx=0;exitDy=0;entryX=0;entryY=0.5;entryDx=0;entryDy=0;" edge="1" parent="1" source="j-x7F7YZUVN5cunonLdc-17" target="j-x7F7YZUVN5cunonLdc-30">
          <mxGeometry relative="1" as="geometry">
            <Array as="points">
              <mxPoint x="420" y="377" />
            </Array>
          </mxGeometry>
        </mxCell>
        <mxCell id="j-x7F7YZUVN5cunonLdc-17" value="erp_loc_a101" style="rounded=1;whiteSpace=wrap;html=1;fillColor=#ffe6cc;strokeColor=#d79b00;" vertex="1" parent="1">
          <mxGeometry x="300" y="359" width="120" height="30" as="geometry" />
        </mxCell>
        <mxCell id="j-x7F7YZUVN5cunonLdc-34" style="edgeStyle=orthogonalEdgeStyle;rounded=0;orthogonalLoop=1;jettySize=auto;html=1;" edge="1" parent="1" target="j-x7F7YZUVN5cunonLdc-31">
          <mxGeometry relative="1" as="geometry">
            <mxPoint x="419.99999999999994" y="425.6" as="sourcePoint" />
            <mxPoint x="533.19" y="425.6" as="targetPoint" />
          </mxGeometry>
        </mxCell>
        <mxCell id="j-x7F7YZUVN5cunonLdc-18" value="erp_px_cat_g1v2" style="rounded=1;whiteSpace=wrap;html=1;fillColor=#ffe6cc;strokeColor=#d79b00;" vertex="1" parent="1">
          <mxGeometry x="300" y="411" width="120" height="30" as="geometry" />
        </mxCell>
        <mxCell id="j-x7F7YZUVN5cunonLdc-19" value="" style="endArrow=classic;html=1;rounded=0;startSize=11;entryX=-0.001;entryY=0.618;entryDx=0;entryDy=0;entryPerimeter=0;" edge="1" parent="1" target="j-x7F7YZUVN5cunonLdc-17">
          <mxGeometry width="50" height="50" relative="1" as="geometry">
            <mxPoint x="200.81" y="377" as="sourcePoint" />
            <mxPoint x="286.81" y="377" as="targetPoint" />
            <Array as="points">
              <mxPoint x="256.81" y="377" />
            </Array>
          </mxGeometry>
        </mxCell>
        <mxCell id="j-x7F7YZUVN5cunonLdc-25" value="Silver Layer" style="rounded=1;whiteSpace=wrap;html=1;fillColor=#f5f5f5;strokeColor=#666666;fontStyle=1;gradientColor=#b3b3b3;" vertex="1" parent="1">
          <mxGeometry x="560" y="100" width="100" height="30" as="geometry" />
        </mxCell>
        <mxCell id="j-x7F7YZUVN5cunonLdc-26" value="crm_sales_details" style="rounded=1;whiteSpace=wrap;html=1;fillColor=#f5f5f5;strokeColor=#666666;gradientColor=#b3b3b3;" vertex="1" parent="1">
          <mxGeometry x="550" y="163" width="120" height="30" as="geometry" />
        </mxCell>
        <mxCell id="j-x7F7YZUVN5cunonLdc-27" value="crm_cust_info" style="rounded=1;whiteSpace=wrap;html=1;fillColor=#f5f5f5;strokeColor=#666666;gradientColor=#b3b3b3;" vertex="1" parent="1">
          <mxGeometry x="550" y="203" width="120" height="30" as="geometry" />
        </mxCell>
        <mxCell id="j-x7F7YZUVN5cunonLdc-28" value="crm_prd_info" style="rounded=1;whiteSpace=wrap;html=1;fillColor=#f5f5f5;strokeColor=#666666;gradientColor=#b3b3b3;" vertex="1" parent="1">
          <mxGeometry x="550" y="250" width="120" height="30" as="geometry" />
        </mxCell>
        <mxCell id="j-x7F7YZUVN5cunonLdc-29" value="erp_cust_az12" style="rounded=1;whiteSpace=wrap;html=1;fillColor=#f5f5f5;strokeColor=#666666;gradientColor=#b3b3b3;" vertex="1" parent="1">
          <mxGeometry x="550" y="319" width="120" height="30" as="geometry" />
        </mxCell>
        <mxCell id="j-x7F7YZUVN5cunonLdc-30" value="erp_loc_a101" style="rounded=1;whiteSpace=wrap;html=1;fillColor=#f5f5f5;strokeColor=#666666;gradientColor=#b3b3b3;" vertex="1" parent="1">
          <mxGeometry x="550" y="362" width="120" height="30" as="geometry" />
        </mxCell>
        <mxCell id="j-x7F7YZUVN5cunonLdc-31" value="erp_px_cat_g1v2" style="rounded=1;whiteSpace=wrap;html=1;fillColor=#f5f5f5;strokeColor=#666666;gradientColor=#b3b3b3;" vertex="1" parent="1">
          <mxGeometry x="550" y="411" width="120" height="30" as="geometry" />
        </mxCell>
        <mxCell id="j-x7F7YZUVN5cunonLdc-38" value="" style="endArrow=none;html=1;rounded=0;" edge="1" parent="1">
          <mxGeometry width="50" height="50" relative="1" as="geometry">
            <mxPoint x="260" y="430" as="sourcePoint" />
            <mxPoint x="260" y="330" as="targetPoint" />
          </mxGeometry>
        </mxCell>
        <mxCell id="j-x7F7YZUVN5cunonLdc-39" value="" style="endArrow=classic;html=1;rounded=0;" edge="1" parent="1">
          <mxGeometry width="50" height="50" relative="1" as="geometry">
            <mxPoint x="260" y="330" as="sourcePoint" />
            <mxPoint x="300" y="330" as="targetPoint" />
          </mxGeometry>
        </mxCell>
        <mxCell id="j-x7F7YZUVN5cunonLdc-40" value="" style="endArrow=classic;html=1;rounded=0;" edge="1" parent="1">
          <mxGeometry width="50" height="50" relative="1" as="geometry">
            <mxPoint x="260" y="430" as="sourcePoint" />
            <mxPoint x="300" y="430" as="targetPoint" />
          </mxGeometry>
        </mxCell>
        <mxCell id="j-x7F7YZUVN5cunonLdc-46" value="" style="endArrow=classic;html=1;rounded=0;entryX=0.028;entryY=0.536;entryDx=0;entryDy=0;exitX=0.934;exitY=0.575;exitDx=0;exitDy=0;exitPerimeter=0;entryPerimeter=0;" edge="1" parent="1" target="j-x7F7YZUVN5cunonLdc-11">
          <mxGeometry width="50" height="50" relative="1" as="geometry">
            <mxPoint x="194.64686000000006" y="224.5" as="sourcePoint" />
            <mxPoint x="303.2500000000001" y="221.5" as="targetPoint" />
          </mxGeometry>
        </mxCell>
        <mxCell id="j-x7F7YZUVN5cunonLdc-48" value="" style="endArrow=none;html=1;rounded=0;" edge="1" parent="1">
          <mxGeometry width="50" height="50" relative="1" as="geometry">
            <mxPoint x="260" y="272.81" as="sourcePoint" />
            <mxPoint x="260" y="172.81" as="targetPoint" />
          </mxGeometry>
        </mxCell>
        <mxCell id="j-x7F7YZUVN5cunonLdc-49" value="" style="endArrow=classic;html=1;rounded=0;" edge="1" parent="1">
          <mxGeometry width="50" height="50" relative="1" as="geometry">
            <mxPoint x="260" y="172.81" as="sourcePoint" />
            <mxPoint x="300" y="172.81" as="targetPoint" />
          </mxGeometry>
        </mxCell>
        <mxCell id="j-x7F7YZUVN5cunonLdc-50" value="" style="endArrow=classic;html=1;rounded=0;" edge="1" parent="1">
          <mxGeometry width="50" height="50" relative="1" as="geometry">
            <mxPoint x="260" y="272.81" as="sourcePoint" />
            <mxPoint x="300" y="272.81" as="targetPoint" />
          </mxGeometry>
        </mxCell>
      </root>
    </mxGraphModel>
  </diagram>
  <diagram id="i14RiPLoxSayQMZjlcY3" name="Page-2">
    <mxGraphModel dx="634" dy="843" grid="1" gridSize="10" guides="1" tooltips="1" connect="1" arrows="1" fold="1" page="1" pageScale="1" pageWidth="850" pageHeight="1100" math="0" shadow="0">
      <root>
        <mxCell id="0" />
        <mxCell id="1" parent="0" />
      </root>
    </mxGraphModel>
  </diagram>
</mxfile>
